HIERARCHY
ROOT Hips
{
	OFFSET 0.00000 0.00000 0.00000
	CHANNELS 6 Xposition Yposition Zposition Zrotation Yrotation Xrotation 
	JOINT LHipJoint
	{
		OFFSET 0 0 0
		CHANNELS 3 Zrotation Yrotation Xrotation
		JOINT LeftHip
		{
			OFFSET 1.57358 -1.76629 0.73362
			CHANNELS 3 Zrotation Yrotation Xrotation
			JOINT LeftKnee
			{
				OFFSET 2.40600 -6.61045 0.00000
				CHANNELS 3 Zrotation Yrotation Xrotation
				JOINT LeftAnkle
				{
					OFFSET 2.66168 -7.31291 0.00000
					CHANNELS 3 Zrotation Yrotation Xrotation
					JOINT LeftToe
					{
						OFFSET 0.20870 -0.57341 2.12506
						CHANNELS 3 Zrotation Yrotation Xrotation
						End Site
						{
							OFFSET 0.00000 -0.00000 1.10557
						}
					}
				}
			}
		}
	}
	JOINT RHipJoint
	{
		OFFSET 0 0 0
		CHANNELS 3 Zrotation Yrotation Xrotation
		JOINT RightHip
		{
			OFFSET -1.49299 -1.76629 0.73362
			CHANNELS 3 Zrotation Yrotation Xrotation
			JOINT RightKnee
			{
				OFFSET -2.43663 -6.69460 0.00000
				CHANNELS 3 Zrotation Yrotation Xrotation
				JOINT RightAnkle
				{
					OFFSET -2.62959 -7.22474 0.00000
					CHANNELS 3 Zrotation Yrotation Xrotation
					JOINT RightToe
					{
						OFFSET -0.25784 -0.70841 2.21862
						CHANNELS 3 Zrotation Yrotation Xrotation
						End Site
						{
							OFFSET -0.00000 -0.00000 1.16452
						}
					}
				}
			}
		}
	}
	JOINT lowerback
	{
		OFFSET 0 0 0
		CHANNELS 3 Zrotation Yrotation Xrotation
		JOINT Chest
		{
			OFFSET -0.00034 2.12399 -0.25450
			CHANNELS 3 Zrotation Yrotation Xrotation
			JOINT Chest2
			{
				OFFSET 0.05594 2.14379 -0.03318
				CHANNELS 3 Zrotation Yrotation Xrotation
				JOINT lowerneck
				{
					OFFSET 0 0 0
					CHANNELS 3 Zrotation Yrotation Xrotation
					JOINT Neck
					{
						OFFSET -0.09835 1.62725 0.24211
						CHANNELS 3 Zrotation Yrotation Xrotation
						JOINT Head
						{
							OFFSET 0.10849 1.66041 -0.22648
							CHANNELS 3 Zrotation Yrotation Xrotation
							End Site
							{
								OFFSET 0.04385 1.68267 -0.10541
							}
						}
					}
				}
				JOINT LeftCollar
				{
					OFFSET 0 0 0
					CHANNELS 3 Zrotation Yrotation Xrotation
					JOINT LeftShoulder
					{
						OFFSET 3.29108 0.79398 -0.68179
CHANNELS 3 Zrotation Xrotation Yrotation
						JOINT LeftElbow
						{
OFFSET 0 -5.153100 -0.000000
CHANNELS 3 Zrotation Xrotation Yrotation
							JOINT LeftWrist
							{
OFFSET 0 -3.751380 -0.000000
CHANNELS 3 Zrotation Xrotation Yrotation
								JOINT lhand
								{
									OFFSET 0 0 0
CHANNELS 3 Zrotation Xrotation Yrotation
									JOINT LFingers
									{
OFFSET 0 -0.529170 0.000000
CHANNELS 3 Zrotation Xrotation Yrotation
										End Site
										{
OFFSET 0 -0.426630 0.000000
										}
									}
								}
								JOINT LThumb
								{
OFFSET 0 0.000000 0.000000
CHANNELS 3 Zrotation Xrotation Yrotation
									End Site
									{
OFFSET 0 -0.433150 0.433150
									}
								}
							}
						}
					}
				}
				JOINT RightCollar
				{
					OFFSET 0 0 0
					CHANNELS 3 Zrotation Yrotation Xrotation
					JOINT RightShoulder
					{
						OFFSET -3.07414 1.06285 -0.44338
CHANNELS 3 Zrotation Xrotation Yrotation
						JOINT RightElbow
						{
OFFSET 0 -5.296130 0.000000
CHANNELS 3 Zrotation Xrotation Yrotation
							JOINT RightWrist
							{
OFFSET 0 -3.761440 -0.000000
CHANNELS 3 Zrotation Xrotation Yrotation
								JOINT rhand
								{
									OFFSET 0 0 0
CHANNELS 3 Zrotation Xrotation Yrotation
									JOINT RFingers
									{
OFFSET 0 -0.747320 0.000000
CHANNELS 3 Zrotation Xrotation Yrotation
										End Site
										{
OFFSET 0 -0.602510 0.000000
										}
									}
								}
								JOINT RThumb
								{
OFFSET 0 0.000000 0.000000
CHANNELS 3 Zrotation Xrotation Yrotation
									End Site
									{
OFFSET 0 -0.611710 0.611710
									}
								}
							}
						}
					}
				}
			}
		}
	}
}
MOTION
Frames: 5
Frame Time: 0.008333333333333333
8.658558 16.502928 0.838001 94.579517 -83.475849 -80.901913 0.000000 0.000000 0.000000 -9.153741 -3.139308 -38.994031 3.641590 11.653430 34.534907 0.053092 4.093257 -7.607209 1.070238 -6.576560 -18.466782 0.000000 0.000000 0.000000 31.602230 9.251254 -3.869885 -2.705556 -10.201730 29.633131 -2.589230 2.654157 -29.798350 -0.495739 -4.338618 12.061480 -0.356658 1.636043 8.156453 -0.833778 2.094175 -0.542067 -0.926621 1.029057 -5.122029 -10.441839 -3.704482 -19.323323 5.651187 -3.371867 18.544718 3.210993 -1.713900 9.311757 0.000000 0.000000 0.000000 0.503966 6.822720 3.623504 8.986076 -15.138278 1.196487 18.897921 26.175970 -23.202689 0.000000 0.000000 0.000000 -7.125000 0.000000 0.000000 -10.768274 54.032239 2.411767 0.000000 0.000000 0.000000 0.423118 -9.718384 47.052752 -43.713540 -50.121462 -21.247118 -12.753398 2.401938 -14.814091 0.000000 0.000000 0.000000 7.125000 0.000000 0.000000 10.015855 14.965629 7.202344
8.590247 16.490957 0.899685 100.195185 -83.190077 -86.462930 0.000000 0.000000 0.000000 -9.711124 -2.908031 -39.034033 3.314405 11.177027 32.891040 0.039021 3.959490 -7.057891 1.043554 -6.494687 -18.227367 0.000000 0.000000 0.000000 31.067976 8.331196 -3.795412 -2.638546 -10.084603 29.252038 -2.485639 1.041098 -29.649122 -0.361739 -1.920657 5.298893 -0.673756 1.718862 8.222064 -0.872506 2.170088 -0.502410 -0.799743 1.074193 -5.126776 -10.363358 -3.633842 -19.363152 5.570855 -3.269169 18.434304 3.182787 -1.666556 9.267919 0.000000 0.000000 0.000000 0.629319 6.577586 3.300517 9.051538 -15.242497 1.213726 19.016029 25.910853 -23.437791 0.000000 0.000000 0.000000 -7.125000 0.000000 0.000000 -10.748731 54.292173 2.476562 0.000000 0.000000 0.000000 0.249926 -9.714611 47.051620 -44.063114 -50.300147 -21.515766 -12.949952 2.361652 -14.751665 0.000000 0.000000 0.000000 7.125000 0.000000 0.000000 9.883181 15.013206 7.094411
8.527245 16.462529 0.961608 104.188575 -83.090062 -90.329284 0.000000 0.000000 0.000000 -9.972139 -2.740886 -39.293688 3.018674 10.710445 31.325134 0.034001 3.779349 -6.683819 0.986556 -6.319379 -17.714812 0.000000 0.000000 0.000000 30.814560 6.930793 -4.067686 -2.562643 -9.949639 28.814963 -2.288798 -1.567370 -29.317270 -0.466399 1.983038 -5.523079 -0.839260 1.754937 8.263440 -0.809410 2.204381 -0.490917 -0.646906 1.096288 -5.146761 -10.276196 -3.703036 -19.729953 5.575359 -3.352014 18.537041 3.158111 -1.694093 9.375065 0.000000 0.000000 0.000000 0.785066 6.312677 3.014028 9.150896 -15.400495 1.240043 19.081048 25.478188 -23.748251 0.000000 0.000000 0.000000 -7.125000 0.000000 0.000000 -10.816518 54.618255 2.578970 0.000000 0.000000 0.000000 -0.004757 -9.690451 47.146099 -44.435357 -50.487512 -21.802677 -13.403586 2.166453 -14.632275 0.000000 0.000000 0.000000 7.125000 0.000000 0.000000 9.576802 15.098209 6.850518
8.462440 16.450420 1.015216 107.496913 -82.980383 -93.462594 0.000000 0.000000 0.000000 -10.265296 -2.596373 -39.559474 2.725144 10.226210 29.721765 0.030287 3.620480 -6.376370 0.927161 -6.131938 -17.168356 0.000000 0.000000 0.000000 30.561158 6.282690 -4.038090 -2.488684 -9.816647 28.385580 -2.208148 -2.601522 -29.169750 -0.527892 3.421861 -9.507659 -0.998222 1.767513 8.254469 -0.758901 2.208306 -0.496650 -0.505704 1.103243 -5.155577 -10.225688 -3.772401 -20.007100 5.584857 -3.433299 18.575835 3.140943 -1.723162 9.444521 0.000000 0.000000 0.000000 0.975479 6.055671 2.705006 9.256428 -15.568086 1.268206 19.207441 25.024677 -23.947644 0.000000 0.000000 0.000000 -7.125000 0.000000 0.000000 -10.773110 54.844253 2.627554 0.000000 0.000000 0.000000 -0.221069 -9.663766 47.234421 -44.773586 -50.656741 -22.063662 -13.839270 1.895066 -14.514106 0.000000 0.000000 0.000000 7.125000 0.000000 0.000000 9.282144 15.183312 6.616246
8.393480 16.475939 1.049649 109.225603 -82.848421 -94.905592 0.000000 0.000000 0.000000 -10.632566 -2.504052 -39.839395 2.436685 9.701270 28.032012 0.029583 3.510661 -6.222547 0.862235 -5.916520 -16.543729 0.000000 0.000000 0.000000 30.307789 7.369302 -3.312416 -2.419208 -9.688203 27.973931 -2.395419 -0.005485 -29.447278 -0.489846 -0.823022 2.273982 -1.142099 1.725903 8.129403 -0.737415 2.142208 -0.542108 -0.391334 1.075283 -5.138642 -10.259699 -3.842158 -20.077514 5.605874 -3.510985 18.467188 3.141083 -1.755766 9.427070 0.000000 0.000000 0.000000 1.245830 5.816892 2.344021 9.376193 -15.757796 1.300621 19.475353 24.523099 -23.890928 0.000000 0.000000 0.000000 -7.125000 0.000000 0.000000 -10.473298 54.839468 2.552026 0.000000 0.000000 0.000000 -0.348903 -9.631256 47.308541 -45.033382 -50.784153 -22.264866 -14.233561 1.447999 -14.398751 0.000000 0.000000 0.000000 7.125000 0.000000 0.000000 9.014514 15.268644 6.404159
